<svg width="242" height="245" viewBox="0 0 242 245" fill="none" xmlns="http://www.w3.org/2000/svg">
<circle cx="120.698" cy="216.327" r="24.6936" fill="#E49C1E" stroke="black" stroke-width="6"/>
<path d="M185.388 67.0853C172.407 13.7752 143.415 3.64892 120.698 3.04393C97.9802 2.43894 69.2049 13.8191 56.2235 67.1292C55.286 72.5381 53.4109 86.0387 53.4109 96.77C53.4109 110.184 45.6221 137.229 26.3664 148.046C10.9619 156.701 4.37025 174.442 3 182.231V199.755C10.8609 205.958 76.561 215.289 120.914 216.154C165.267 217.02 230.751 205.914 238.612 199.711V182.187C237.241 174.398 230.65 156.657 215.245 148.002C195.989 137.185 188.201 110.14 188.201 96.7261C188.201 85.9948 186.326 72.4942 185.388 67.0853Z" fill="#FFAD1F" stroke="black" stroke-width="6"/>
<path d="M145.146 26.583C149.545 29.9726 159.512 39.9538 164.185 52.7621" stroke="#FFD386" stroke-width="6" stroke-linecap="round"/>
<path d="M103.605 17.4958C108.582 13.3851 121.996 7.11076 118.75 3L105.336 4.73085L96.033 9.27432L80.6718 18.5776L69.4212 33.7225L59.2525 58.6035L55.1418 78.0755L52.5455 110.745L44.5403 130.65L30.9099 144.713L14.4669 156.829L3.86542 174.354V199.668L17.2795 202.48C17.4958 200.894 18.5343 194.691 20.9575 182.575C23.3807 170.459 34.5158 161.805 39.7805 158.993C45.8385 157.089 55.286 150.266 59.2525 147.093C70.503 133.246 74.0368 109.88 74.3974 99.9274C89.9751 19.6594 94.6757 24.8726 103.605 17.4958Z" fill="#D59018"/>
<path d="M185.388 67.0638C172.407 13.7537 143.415 3.62743 120.698 3.02244C97.9802 2.41745 69.2049 13.7976 56.2235 67.1077C55.286 72.5166 53.4109 86.0173 53.4109 96.7485C53.4109 110.163 45.6221 137.207 26.3664 148.025C10.9619 156.679 4.37025 174.42 3 182.209V199.734C10.8609 205.936 76.561 215.268 120.914 216.133C165.267 216.998 230.751 205.892 238.612 199.69V182.165C237.241 174.376 230.65 156.635 215.245 147.981C195.989 137.163 188.201 110.119 188.201 96.7046C188.201 85.9733 186.326 72.4727 185.388 67.0638Z" stroke="black" stroke-width="6"/>
</svg>
