<svg width="254" height="226" viewBox="0 0 254 226" fill="none" xmlns="http://www.w3.org/2000/svg">
<g filter="url(#filter0_i_28_4240)">
<path d="M207.65 161.915C195.566 142.935 189.929 140.596 177.053 141.037L166.601 147.691C160.136 158.971 163.358 164.032 175.709 183.434L175.709 183.434C188.061 202.836 219.733 180.895 207.65 161.915Z" fill="#759EE4"/>
</g>
<path d="M186.645 165.222C186.794 165.455 187.103 165.523 187.336 165.375C187.569 165.227 187.637 164.918 187.489 164.685L186.645 165.222ZM187.489 164.685L173.988 143.478L173.145 144.015L186.645 165.222L187.489 164.685Z" fill="#5584D5"/>
<g filter="url(#filter1_i_28_4240)">
<path d="M149.5 103.472C149.5 125.972 153 130.972 164.098 137.515L176.489 137.515C188 131.472 188 125.472 188 102.472L188 102.472C188 79.4721 149.5 80.9719 149.5 103.472Z" fill="#759EE4"/>
</g>
<path d="M168.995 111.962C168.995 111.686 168.771 111.462 168.495 111.462C168.218 111.462 167.995 111.686 167.995 111.962H168.995ZM167.995 111.962V137.102H168.995V111.962H167.995Z" fill="#5584D5"/>
<g filter="url(#filter2_i_28_4240)">
<path d="M126.912 146.283C148.642 152.117 154.379 150.033 163.575 141.011L166.788 129.044C163.937 116.36 158.142 114.804 135.928 108.841L135.928 108.841C113.715 102.877 105.181 140.449 126.912 146.283Z" fill="#759EE4"/>
</g>
<path d="M140.166 129.657C139.9 129.585 139.625 129.743 139.554 130.01C139.482 130.277 139.64 130.551 139.907 130.623L140.166 129.657ZM139.907 130.623L164.187 137.141L164.446 136.175L140.166 129.657L139.907 130.623Z" fill="#5584D5"/>
<g filter="url(#filter3_i_28_4240)">
<path d="M160.846 181.635C173.495 163.027 173.411 156.924 167.911 145.274L157.664 138.308C144.747 136.834 141.374 141.797 128.444 160.818L128.444 160.818C115.514 179.839 148.197 200.243 160.846 181.635Z" fill="#759EE4"/>
</g>
<path d="M149.497 163.654C149.342 163.882 149.401 164.193 149.629 164.348C149.858 164.504 150.169 164.444 150.324 164.216L149.497 163.654ZM150.324 164.216L164.457 143.425L163.63 142.863L149.497 163.654L150.324 164.216Z" fill="#5584D5"/>
<g filter="url(#filter4_i_28_4240)">
<path d="M203.092 113.819C181 118.088 176.755 122.473 172.437 134.611L174.788 146.777C182.904 156.932 188.795 155.794 211.378 151.43L211.378 151.43C233.96 147.067 225.183 109.551 203.092 113.819Z" fill="#759EE4"/>
</g>
<path d="M198.454 134.571C198.725 134.518 198.903 134.256 198.85 133.985C198.798 133.714 198.536 133.536 198.265 133.589L198.454 134.571ZM198.265 133.589L173.581 138.358L173.771 139.34L198.454 134.571L198.265 133.589Z" fill="#5584D5"/>
<circle cx="168" cy="139.972" r="12" fill="#5584D5"/>
<g filter="url(#filter5_i_28_4240)">
<path d="M124.65 139.915C112.566 120.935 106.929 118.596 94.053 119.037L83.6007 125.691C77.1356 136.971 80.3578 142.032 92.7094 161.434L92.7095 161.434C105.061 180.836 136.733 158.895 124.65 139.915Z" fill="#759EE4"/>
</g>
<path d="M103.645 143.222C103.794 143.455 104.103 143.523 104.336 143.375C104.569 143.227 104.637 142.918 104.489 142.685L103.645 143.222ZM104.489 142.685L90.9882 121.478L90.1447 122.015L103.645 143.222L104.489 142.685Z" fill="#5584D5"/>
<g filter="url(#filter6_i_28_4240)">
<path d="M66.5 81.4719C66.5 103.972 70 108.972 81.0984 115.515L93.4891 115.515C105 109.472 105 103.472 105 80.4721L105 80.472C105 57.4721 66.5 58.9719 66.5 81.4719Z" fill="#759EE4"/>
</g>
<path d="M85.9946 89.9622C85.9946 89.686 85.7708 89.4622 85.4946 89.4622C85.2185 89.4622 84.9946 89.686 84.9946 89.9622H85.9946ZM84.9946 89.9622V115.102H85.9946V89.9622H84.9946Z" fill="#5584D5"/>
<g filter="url(#filter7_i_28_4240)">
<path d="M43.9117 124.283C65.6422 130.117 71.3788 128.033 80.5753 119.011L83.788 107.044C80.9365 94.3598 75.1417 92.8041 52.9283 86.8406L52.9283 86.8406C30.7149 80.8771 22.1811 118.449 43.9117 124.283Z" fill="#759EE4"/>
</g>
<path d="M57.1663 107.657C56.8996 107.585 56.6253 107.743 56.5537 108.01C56.4821 108.277 56.6403 108.551 56.907 108.623L57.1663 107.657ZM56.907 108.623L81.1868 115.141L81.4461 114.175L57.1663 107.657L56.907 108.623Z" fill="#5584D5"/>
<g filter="url(#filter8_i_28_4240)">
<path d="M77.8462 159.635C90.4951 141.027 90.4113 134.924 84.9108 123.274L74.6635 116.308C61.7467 114.834 58.3736 119.797 45.4438 138.818L45.4437 138.818C32.5138 157.839 65.1973 178.243 77.8462 159.635Z" fill="#759EE4"/>
</g>
<path d="M66.4969 141.654C66.3417 141.882 66.4009 142.193 66.6293 142.348C66.8577 142.504 67.1687 142.444 67.3239 142.216L66.4969 141.654ZM67.3239 142.216L81.4566 121.425L80.6296 120.863L66.4969 141.654L67.3239 142.216Z" fill="#5584D5"/>
<g filter="url(#filter9_i_28_4240)">
<path d="M120.092 91.8193C98.0005 96.0879 93.7553 100.473 89.4369 112.611L91.7876 124.777C99.9043 134.932 105.795 133.794 128.378 129.43L128.378 129.43C150.96 125.067 142.183 87.5507 120.092 91.8193Z" fill="#759EE4"/>
</g>
<path d="M115.454 112.571C115.725 112.518 115.903 112.256 115.85 111.985C115.798 111.714 115.536 111.536 115.265 111.589L115.454 112.571ZM115.265 111.589L90.5815 116.358L90.7712 117.34L115.454 112.571L115.265 111.589Z" fill="#5584D5"/>
<circle cx="85" cy="117.972" r="12" fill="#5584D5"/>
<g filter="url(#filter10_i_28_4240)">
<path d="M177.65 99.9148C165.566 80.9346 159.929 78.5964 147.053 79.0374L136.601 85.6915C130.136 96.9706 133.358 102.032 145.709 121.434L145.709 121.434C158.061 140.836 189.733 118.895 177.65 99.9148Z" fill="#759EE4"/>
</g>
<path d="M156.645 103.222C156.794 103.455 157.103 103.523 157.336 103.375C157.569 103.227 157.637 102.918 157.489 102.685L156.645 103.222ZM157.489 102.685L143.988 81.478L143.145 82.0151L156.645 103.222L157.489 102.685Z" fill="#5584D5"/>
<g filter="url(#filter11_i_28_4240)">
<path d="M119.5 41.4719C119.5 63.972 123 68.972 134.098 75.5147L146.489 75.5147C158 69.472 158 63.4719 158 40.4721L158 40.472C158 17.4721 119.5 18.9719 119.5 41.4719Z" fill="#759EE4"/>
</g>
<path d="M138.995 49.9622C138.995 49.686 138.771 49.4622 138.495 49.4622C138.218 49.4622 137.995 49.686 137.995 49.9622H138.995ZM137.995 49.9622V75.1017H138.995V49.9622H137.995Z" fill="#5584D5"/>
<g filter="url(#filter12_i_28_4240)">
<path d="M96.9117 84.2832C118.642 90.1171 124.379 88.0332 133.575 79.0107L136.788 67.0438C133.937 54.3598 128.142 52.8041 105.928 46.8406L105.928 46.8406C83.7149 40.8771 75.1811 78.4494 96.9117 84.2832Z" fill="#759EE4"/>
</g>
<path d="M110.166 67.6567C109.9 67.5851 109.625 67.7433 109.554 68.01C109.482 68.2767 109.64 68.551 109.907 68.6225L110.166 67.6567ZM109.907 68.6225L134.187 75.1408L134.446 74.175L110.166 67.6567L109.907 68.6225Z" fill="#5584D5"/>
<g filter="url(#filter13_i_28_4240)">
<path d="M130.846 119.635C143.495 101.027 143.411 94.9238 137.911 83.2737L127.664 76.308C114.747 74.8344 111.374 79.7965 98.4438 98.8179L98.4437 98.818C85.5138 117.839 118.197 138.243 130.846 119.635Z" fill="#759EE4"/>
</g>
<path d="M119.497 101.654C119.342 101.882 119.401 102.193 119.629 102.348C119.858 102.504 120.169 102.444 120.324 102.216L119.497 101.654ZM120.324 102.216L134.457 81.4249L133.63 80.8628L119.497 101.654L120.324 102.216Z" fill="#5584D5"/>
<g filter="url(#filter14_i_28_4240)">
<path d="M173.092 51.8193C151 56.0879 146.755 60.4729 142.437 72.611L144.788 84.7766C152.904 94.9321 158.795 93.7938 181.378 89.4304L181.378 89.4304C203.96 85.067 195.183 47.5507 173.092 51.8193Z" fill="#759EE4"/>
</g>
<path d="M168.454 72.5705C168.725 72.5181 168.903 72.2559 168.85 71.9847C168.798 71.7136 168.536 71.5363 168.265 71.5887L168.454 72.5705ZM168.265 71.5887L143.581 76.358L143.771 77.3398L168.454 72.5705L168.265 71.5887Z" fill="#5584D5"/>
<circle cx="138" cy="77.9719" r="12" fill="#5584D5"/>
<defs>
<filter id="filter0_i_28_4240" x="163.344" y="140.99" width="47.0059" height="49.9922" filterUnits="userSpaceOnUse" color-interpolation-filters="sRGB">
<feFlood flood-opacity="0" result="BackgroundImageFix"/>
<feBlend mode="normal" in="SourceGraphic" in2="BackgroundImageFix" result="shape"/>
<feColorMatrix in="SourceAlpha" type="matrix" values="0 0 0 0 0 0 0 0 0 0 0 0 0 0 0 0 0 0 127 0" result="hardAlpha"/>
<feOffset/>
<feGaussianBlur stdDeviation="2"/>
<feComposite in2="hardAlpha" operator="arithmetic" k2="-1" k3="1"/>
<feColorMatrix type="matrix" values="0 0 0 0 0.338211 0 0 0 0 0.507226 0 0 0 0 0.79579 0 0 0 1 0"/>
<feBlend mode="normal" in2="shape" result="effect1_innerShadow_28_4240"/>
</filter>
<filter id="filter1_i_28_4240" x="149.5" y="85.8965" width="38.5" height="51.6182" filterUnits="userSpaceOnUse" color-interpolation-filters="sRGB">
<feFlood flood-opacity="0" result="BackgroundImageFix"/>
<feBlend mode="normal" in="SourceGraphic" in2="BackgroundImageFix" result="shape"/>
<feColorMatrix in="SourceAlpha" type="matrix" values="0 0 0 0 0 0 0 0 0 0 0 0 0 0 0 0 0 0 127 0" result="hardAlpha"/>
<feOffset/>
<feGaussianBlur stdDeviation="2"/>
<feComposite in2="hardAlpha" operator="arithmetic" k2="-1" k3="1"/>
<feColorMatrix type="matrix" values="0 0 0 0 0.338211 0 0 0 0 0.507226 0 0 0 0 0.79579 0 0 0 1 0"/>
<feBlend mode="normal" in2="shape" result="effect1_innerShadow_28_4240"/>
</filter>
<filter id="filter2_i_28_4240" x="114.3" y="108.201" width="52.4885" height="41.3567" filterUnits="userSpaceOnUse" color-interpolation-filters="sRGB">
<feFlood flood-opacity="0" result="BackgroundImageFix"/>
<feBlend mode="normal" in="SourceGraphic" in2="BackgroundImageFix" result="shape"/>
<feColorMatrix in="SourceAlpha" type="matrix" values="0 0 0 0 0 0 0 0 0 0 0 0 0 0 0 0 0 0 127 0" result="hardAlpha"/>
<feOffset/>
<feGaussianBlur stdDeviation="2"/>
<feComposite in2="hardAlpha" operator="arithmetic" k2="-1" k3="1"/>
<feColorMatrix type="matrix" values="0 0 0 0 0.338211 0 0 0 0 0.507226 0 0 0 0 0.79579 0 0 0 1 0"/>
<feBlend mode="normal" in2="shape" result="effect1_innerShadow_28_4240"/>
</filter>
<filter id="filter3_i_28_4240" x="125.472" y="138.065" width="45.9714" height="50.9114" filterUnits="userSpaceOnUse" color-interpolation-filters="sRGB">
<feFlood flood-opacity="0" result="BackgroundImageFix"/>
<feBlend mode="normal" in="SourceGraphic" in2="BackgroundImageFix" result="shape"/>
<feColorMatrix in="SourceAlpha" type="matrix" values="0 0 0 0 0 0 0 0 0 0 0 0 0 0 0 0 0 0 127 0" result="hardAlpha"/>
<feOffset/>
<feGaussianBlur stdDeviation="2"/>
<feComposite in2="hardAlpha" operator="arithmetic" k2="-1" k3="1"/>
<feColorMatrix type="matrix" values="0 0 0 0 0.338211 0 0 0 0 0.507226 0 0 0 0 0.79579 0 0 0 1 0"/>
<feBlend mode="normal" in2="shape" result="effect1_innerShadow_28_4240"/>
</filter>
<filter id="filter4_i_28_4240" x="172.437" y="113.481" width="52.1465" height="41.1484" filterUnits="userSpaceOnUse" color-interpolation-filters="sRGB">
<feFlood flood-opacity="0" result="BackgroundImageFix"/>
<feBlend mode="normal" in="SourceGraphic" in2="BackgroundImageFix" result="shape"/>
<feColorMatrix in="SourceAlpha" type="matrix" values="0 0 0 0 0 0 0 0 0 0 0 0 0 0 0 0 0 0 127 0" result="hardAlpha"/>
<feOffset/>
<feGaussianBlur stdDeviation="2"/>
<feComposite in2="hardAlpha" operator="arithmetic" k2="-1" k3="1"/>
<feColorMatrix type="matrix" values="0 0 0 0 0.338211 0 0 0 0 0.507226 0 0 0 0 0.79579 0 0 0 1 0"/>
<feBlend mode="normal" in2="shape" result="effect1_innerShadow_28_4240"/>
</filter>
<filter id="filter5_i_28_4240" x="80.3438" y="118.99" width="47.0059" height="49.9922" filterUnits="userSpaceOnUse" color-interpolation-filters="sRGB">
<feFlood flood-opacity="0" result="BackgroundImageFix"/>
<feBlend mode="normal" in="SourceGraphic" in2="BackgroundImageFix" result="shape"/>
<feColorMatrix in="SourceAlpha" type="matrix" values="0 0 0 0 0 0 0 0 0 0 0 0 0 0 0 0 0 0 127 0" result="hardAlpha"/>
<feOffset/>
<feGaussianBlur stdDeviation="2"/>
<feComposite in2="hardAlpha" operator="arithmetic" k2="-1" k3="1"/>
<feColorMatrix type="matrix" values="0 0 0 0 0.338211 0 0 0 0 0.507226 0 0 0 0 0.79579 0 0 0 1 0"/>
<feBlend mode="normal" in2="shape" result="effect1_innerShadow_28_4240"/>
</filter>
<filter id="filter6_i_28_4240" x="66.5" y="63.8965" width="38.5" height="51.6182" filterUnits="userSpaceOnUse" color-interpolation-filters="sRGB">
<feFlood flood-opacity="0" result="BackgroundImageFix"/>
<feBlend mode="normal" in="SourceGraphic" in2="BackgroundImageFix" result="shape"/>
<feColorMatrix in="SourceAlpha" type="matrix" values="0 0 0 0 0 0 0 0 0 0 0 0 0 0 0 0 0 0 127 0" result="hardAlpha"/>
<feOffset/>
<feGaussianBlur stdDeviation="2"/>
<feComposite in2="hardAlpha" operator="arithmetic" k2="-1" k3="1"/>
<feColorMatrix type="matrix" values="0 0 0 0 0.338211 0 0 0 0 0.507226 0 0 0 0 0.79579 0 0 0 1 0"/>
<feBlend mode="normal" in2="shape" result="effect1_innerShadow_28_4240"/>
</filter>
<filter id="filter7_i_28_4240" x="31.2996" y="86.2012" width="52.4885" height="41.3567" filterUnits="userSpaceOnUse" color-interpolation-filters="sRGB">
<feFlood flood-opacity="0" result="BackgroundImageFix"/>
<feBlend mode="normal" in="SourceGraphic" in2="BackgroundImageFix" result="shape"/>
<feColorMatrix in="SourceAlpha" type="matrix" values="0 0 0 0 0 0 0 0 0 0 0 0 0 0 0 0 0 0 127 0" result="hardAlpha"/>
<feOffset/>
<feGaussianBlur stdDeviation="2"/>
<feComposite in2="hardAlpha" operator="arithmetic" k2="-1" k3="1"/>
<feColorMatrix type="matrix" values="0 0 0 0 0.338211 0 0 0 0 0.507226 0 0 0 0 0.79579 0 0 0 1 0"/>
<feBlend mode="normal" in2="shape" result="effect1_innerShadow_28_4240"/>
</filter>
<filter id="filter8_i_28_4240" x="42.4717" y="116.065" width="45.9714" height="50.9114" filterUnits="userSpaceOnUse" color-interpolation-filters="sRGB">
<feFlood flood-opacity="0" result="BackgroundImageFix"/>
<feBlend mode="normal" in="SourceGraphic" in2="BackgroundImageFix" result="shape"/>
<feColorMatrix in="SourceAlpha" type="matrix" values="0 0 0 0 0 0 0 0 0 0 0 0 0 0 0 0 0 0 127 0" result="hardAlpha"/>
<feOffset/>
<feGaussianBlur stdDeviation="2"/>
<feComposite in2="hardAlpha" operator="arithmetic" k2="-1" k3="1"/>
<feColorMatrix type="matrix" values="0 0 0 0 0.338211 0 0 0 0 0.507226 0 0 0 0 0.79579 0 0 0 1 0"/>
<feBlend mode="normal" in2="shape" result="effect1_innerShadow_28_4240"/>
</filter>
<filter id="filter9_i_28_4240" x="89.437" y="91.4814" width="52.1465" height="41.1484" filterUnits="userSpaceOnUse" color-interpolation-filters="sRGB">
<feFlood flood-opacity="0" result="BackgroundImageFix"/>
<feBlend mode="normal" in="SourceGraphic" in2="BackgroundImageFix" result="shape"/>
<feColorMatrix in="SourceAlpha" type="matrix" values="0 0 0 0 0 0 0 0 0 0 0 0 0 0 0 0 0 0 127 0" result="hardAlpha"/>
<feOffset/>
<feGaussianBlur stdDeviation="2"/>
<feComposite in2="hardAlpha" operator="arithmetic" k2="-1" k3="1"/>
<feColorMatrix type="matrix" values="0 0 0 0 0.338211 0 0 0 0 0.507226 0 0 0 0 0.79579 0 0 0 1 0"/>
<feBlend mode="normal" in2="shape" result="effect1_innerShadow_28_4240"/>
</filter>
<filter id="filter10_i_28_4240" x="133.344" y="78.9902" width="47.0059" height="49.9922" filterUnits="userSpaceOnUse" color-interpolation-filters="sRGB">
<feFlood flood-opacity="0" result="BackgroundImageFix"/>
<feBlend mode="normal" in="SourceGraphic" in2="BackgroundImageFix" result="shape"/>
<feColorMatrix in="SourceAlpha" type="matrix" values="0 0 0 0 0 0 0 0 0 0 0 0 0 0 0 0 0 0 127 0" result="hardAlpha"/>
<feOffset/>
<feGaussianBlur stdDeviation="2"/>
<feComposite in2="hardAlpha" operator="arithmetic" k2="-1" k3="1"/>
<feColorMatrix type="matrix" values="0 0 0 0 0.338211 0 0 0 0 0.507226 0 0 0 0 0.79579 0 0 0 1 0"/>
<feBlend mode="normal" in2="shape" result="effect1_innerShadow_28_4240"/>
</filter>
<filter id="filter11_i_28_4240" x="119.5" y="23.8965" width="38.5" height="51.6182" filterUnits="userSpaceOnUse" color-interpolation-filters="sRGB">
<feFlood flood-opacity="0" result="BackgroundImageFix"/>
<feBlend mode="normal" in="SourceGraphic" in2="BackgroundImageFix" result="shape"/>
<feColorMatrix in="SourceAlpha" type="matrix" values="0 0 0 0 0 0 0 0 0 0 0 0 0 0 0 0 0 0 127 0" result="hardAlpha"/>
<feOffset/>
<feGaussianBlur stdDeviation="2"/>
<feComposite in2="hardAlpha" operator="arithmetic" k2="-1" k3="1"/>
<feColorMatrix type="matrix" values="0 0 0 0 0.338211 0 0 0 0 0.507226 0 0 0 0 0.79579 0 0 0 1 0"/>
<feBlend mode="normal" in2="shape" result="effect1_innerShadow_28_4240"/>
</filter>
<filter id="filter12_i_28_4240" x="84.2996" y="46.2012" width="52.4885" height="41.3567" filterUnits="userSpaceOnUse" color-interpolation-filters="sRGB">
<feFlood flood-opacity="0" result="BackgroundImageFix"/>
<feBlend mode="normal" in="SourceGraphic" in2="BackgroundImageFix" result="shape"/>
<feColorMatrix in="SourceAlpha" type="matrix" values="0 0 0 0 0 0 0 0 0 0 0 0 0 0 0 0 0 0 127 0" result="hardAlpha"/>
<feOffset/>
<feGaussianBlur stdDeviation="2"/>
<feComposite in2="hardAlpha" operator="arithmetic" k2="-1" k3="1"/>
<feColorMatrix type="matrix" values="0 0 0 0 0.338211 0 0 0 0 0.507226 0 0 0 0 0.79579 0 0 0 1 0"/>
<feBlend mode="normal" in2="shape" result="effect1_innerShadow_28_4240"/>
</filter>
<filter id="filter13_i_28_4240" x="95.4717" y="76.0654" width="45.9714" height="50.9114" filterUnits="userSpaceOnUse" color-interpolation-filters="sRGB">
<feFlood flood-opacity="0" result="BackgroundImageFix"/>
<feBlend mode="normal" in="SourceGraphic" in2="BackgroundImageFix" result="shape"/>
<feColorMatrix in="SourceAlpha" type="matrix" values="0 0 0 0 0 0 0 0 0 0 0 0 0 0 0 0 0 0 127 0" result="hardAlpha"/>
<feOffset/>
<feGaussianBlur stdDeviation="2"/>
<feComposite in2="hardAlpha" operator="arithmetic" k2="-1" k3="1"/>
<feColorMatrix type="matrix" values="0 0 0 0 0.338211 0 0 0 0 0.507226 0 0 0 0 0.79579 0 0 0 1 0"/>
<feBlend mode="normal" in2="shape" result="effect1_innerShadow_28_4240"/>
</filter>
<filter id="filter14_i_28_4240" x="142.437" y="51.4814" width="52.1465" height="41.1484" filterUnits="userSpaceOnUse" color-interpolation-filters="sRGB">
<feFlood flood-opacity="0" result="BackgroundImageFix"/>
<feBlend mode="normal" in="SourceGraphic" in2="BackgroundImageFix" result="shape"/>
<feColorMatrix in="SourceAlpha" type="matrix" values="0 0 0 0 0 0 0 0 0 0 0 0 0 0 0 0 0 0 127 0" result="hardAlpha"/>
<feOffset/>
<feGaussianBlur stdDeviation="2"/>
<feComposite in2="hardAlpha" operator="arithmetic" k2="-1" k3="1"/>
<feColorMatrix type="matrix" values="0 0 0 0 0.338211 0 0 0 0 0.507226 0 0 0 0 0.79579 0 0 0 1 0"/>
<feBlend mode="normal" in2="shape" result="effect1_innerShadow_28_4240"/>
</filter>
</defs>
</svg>
