<svg width="139" height="134" viewBox="0 0 139 134" fill="none" xmlns="http://www.w3.org/2000/svg">
<g filter="url(#filter0_i_29_6692)">
<path d="M45.4397 9.90952C41.3229 18.2488 61.8835 62.7221 61.8835 62.7221H76.3858C76.3858 62.7221 95.4307 18.2479 92.6861 9.90952C89.9416 1.57109 81.8749 0.180497 76.3858 9.9095C75.0135 -3.98892 62.663 -2.59915 59.9184 9.9095C55.8015 1.57026 49.5565 1.57028 45.4397 9.90952Z" fill="#F56DAE"/>
<path d="M65.1235 34.4103C65.0382 33.8646 64.5267 33.4914 63.9811 33.5767C63.4354 33.662 63.0622 34.1735 63.1475 34.7191L65.1235 34.4103ZM63.1475 34.7191L67.5431 62.8402L69.5191 62.5313L65.1235 34.4103L63.1475 34.7191Z" fill="#D35893"/>
<path d="M73.5288 34.4103C73.6141 33.8646 74.1256 33.4914 74.6713 33.5767C75.2169 33.662 75.5901 34.1735 75.5048 34.7191L73.5288 34.4103ZM75.5048 34.7191L71.1092 62.8402L69.1332 62.5313L73.5288 34.4103L75.5048 34.7191Z" fill="#D35893"/>
</g>
<g filter="url(#filter1_i_29_6692)">
<path d="M9.16004 67.0051C14.8586 74.3592 63.9263 75.4642 63.9263 75.4642L70.2971 62.4632C70.2971 62.4632 38.6274 25.8525 29.9153 24.6499C21.2033 23.4472 16.4078 30.0679 22.7546 39.2627C9.64025 34.3874 5.46575 46.0699 15.5205 54.0253C6.2049 54.0526 3.46147 59.6511 9.16004 67.0051Z" fill="#F56DAE"/>
<path d="M39.8643 60.1211C39.3365 59.9582 38.7759 60.2535 38.6121 60.7808C38.4484 61.3081 38.7436 61.8677 39.2714 62.0307L39.8643 60.1211ZM39.2714 62.0307L66.5173 70.4437L67.1102 68.5341L39.8643 60.1211L39.2714 62.0307Z" fill="#D35893"/>
<path d="M43.5555 52.5888C43.1025 52.2731 42.9919 51.6502 43.3084 51.1975C43.6249 50.7447 44.2488 50.6336 44.7018 50.9493L43.5555 52.5888ZM44.7018 50.9493L68.0857 67.2434L66.9394 68.8829L43.5555 52.5888L44.7018 50.9493Z" fill="#D35893"/>
</g>
<g filter="url(#filter2_i_29_6692)">
<path d="M118.302 28.8588C109.218 26.8004 70.648 57.0895 70.648 57.0895L74.0173 71.1657C74.0173 71.1657 121.789 79.3181 129.279 74.7169C136.768 70.1158 136.25 61.963 125.492 58.8956C138.719 54.3345 134.495 42.6698 121.666 42.9121C128.837 36.9787 127.386 30.9172 118.302 28.8588Z" fill="#F56DAE"/>
<path d="M98.9947 53.6587C99.5057 53.4495 99.75 52.8657 99.5403 52.3547C99.3307 51.8437 98.7464 51.599 98.2353 51.8081L98.9947 53.6587ZM98.2353 51.8081L71.8481 62.608L72.6074 64.4586L98.9947 53.6587L98.2353 51.8081Z" fill="#D35893"/>
<path d="M100.947 61.8132C101.497 61.7693 101.98 62.1799 102.024 62.7303C102.068 63.2807 101.658 63.7625 101.107 63.8064L100.947 61.8132ZM101.107 63.8064L72.6777 66.0734L72.517 64.0802L100.947 61.8132L101.107 63.8064Z" fill="#D35893"/>
</g>
<g filter="url(#filter3_i_29_6692)">
<path d="M121.95 97.574C120.217 88.4401 76.9956 65.2332 76.9956 65.2332L65.4061 73.9329C65.4061 73.9329 76.977 120.899 84.1932 125.916C91.4095 130.934 98.6936 127.206 97.2196 116.138C106.688 126.422 115.721 117.902 110.38 106.26C118.693 110.454 123.684 106.708 121.95 97.574Z" fill="#F56DAE"/>
<path d="M91.4601 89.8022C91.8567 90.1869 92.4904 90.178 92.8755 89.7824C93.2607 89.3868 93.2514 88.7543 92.8548 88.3696L91.4601 89.8022ZM92.8548 88.3696L72.4024 68.5336L71.0077 69.9662L91.4601 89.8022L92.8548 88.3696Z" fill="#D35893"/>
<path d="M84.7441 94.8437C85.0044 95.3306 84.8202 95.9357 84.3325 96.1953C83.8448 96.4549 83.2384 96.2706 82.9781 95.7837L84.7441 94.8437ZM82.9781 95.7837L69.5512 70.674L71.3172 69.7339L84.7441 94.8437L82.9781 95.7837Z" fill="#D35893"/>
</g>
<g filter="url(#filter4_i_29_6692)">
<path d="M54.9438 125.785C63.2804 121.636 73.9062 73.8197 73.9062 73.8197L62.3654 65.0558C62.3654 65.0558 20.2213 88.939 17.3454 97.2332C14.4695 105.527 20.045 111.509 30.3171 107.084C22.9752 118.973 33.647 125.331 43.4217 117.035C41.6374 126.159 46.6071 129.933 54.9438 125.785Z" fill="#F56DAE"/>
<path d="M54.147 94.3913C53.8839 94.8767 54.0648 95.4829 54.551 95.7451C55.0373 96.0074 55.6447 95.8265 55.9077 95.3411L54.147 94.3913ZM55.9077 95.3411L69.4744 70.3063L67.7137 69.3565L54.147 94.3913L55.9077 95.3411Z" fill="#D35893"/>
<path d="M47.4592 89.3127C47.0605 89.6951 46.4269 89.6827 46.0439 89.2849C45.661 88.8872 45.6738 88.2548 46.0725 87.8724L47.4592 89.3127ZM46.0725 87.8724L66.6352 68.1502L68.0219 69.5905L47.4592 89.3127L46.0725 87.8724Z" fill="#D35893"/>
</g>
<ellipse cx="69.4801" cy="67.2022" rx="10.4755" ry="10.4537" fill="#FFDD48"/>
<defs>
<filter id="filter0_i_29_6692" x="44.8948" y="0" width="48.0618" height="62.8401" filterUnits="userSpaceOnUse" color-interpolation-filters="sRGB">
<feFlood flood-opacity="0" result="BackgroundImageFix"/>
<feBlend mode="normal" in="SourceGraphic" in2="BackgroundImageFix" result="shape"/>
<feColorMatrix in="SourceAlpha" type="matrix" values="0 0 0 0 0 0 0 0 0 0 0 0 0 0 0 0 0 0 127 0" result="hardAlpha"/>
<feOffset/>
<feGaussianBlur stdDeviation="5"/>
<feComposite in2="hardAlpha" operator="arithmetic" k2="-1" k3="1"/>
<feColorMatrix type="matrix" values="0 0 0 0 0.69579 0 0 0 0 0.262854 0 0 0 0 0.469772 0 0 0 1 0"/>
<feBlend mode="normal" in2="shape" result="effect1_innerShadow_29_6692"/>
</filter>
<filter id="filter1_i_29_6692" x="0" y="20.0542" width="77.5767" height="70.6399" filterUnits="userSpaceOnUse" color-interpolation-filters="sRGB">
<feFlood flood-opacity="0" result="BackgroundImageFix"/>
<feBlend mode="normal" in="SourceGraphic" in2="BackgroundImageFix" result="shape"/>
<feColorMatrix in="SourceAlpha" type="matrix" values="0 0 0 0 0 0 0 0 0 0 0 0 0 0 0 0 0 0 127 0" result="hardAlpha"/>
<feOffset/>
<feGaussianBlur stdDeviation="5"/>
<feComposite in2="hardAlpha" operator="arithmetic" k2="-1" k3="1"/>
<feColorMatrix type="matrix" values="0 0 0 0 0.69579 0 0 0 0 0.262854 0 0 0 0 0.469772 0 0 0 1 0"/>
<feBlend mode="normal" in2="shape" result="effect1_innerShadow_29_6692"/>
</filter>
<filter id="filter2_i_29_6692" x="66.7009" y="26.0276" width="72.2991" height="61.2219" filterUnits="userSpaceOnUse" color-interpolation-filters="sRGB">
<feFlood flood-opacity="0" result="BackgroundImageFix"/>
<feBlend mode="normal" in="SourceGraphic" in2="BackgroundImageFix" result="shape"/>
<feColorMatrix in="SourceAlpha" type="matrix" values="0 0 0 0 0 0 0 0 0 0 0 0 0 0 0 0 0 0 127 0" result="hardAlpha"/>
<feOffset/>
<feGaussianBlur stdDeviation="5"/>
<feComposite in2="hardAlpha" operator="arithmetic" k2="-1" k3="1"/>
<feColorMatrix type="matrix" values="0 0 0 0 0.69579 0 0 0 0 0.262854 0 0 0 0 0.469772 0 0 0 1 0"/>
<feBlend mode="normal" in2="shape" result="effect1_innerShadow_29_6692"/>
</filter>
<filter id="filter3_i_29_6692" x="52.1636" y="55.042" width="76.1914" height="78.9558" filterUnits="userSpaceOnUse" color-interpolation-filters="sRGB">
<feFlood flood-opacity="0" result="BackgroundImageFix"/>
<feBlend mode="normal" in="SourceGraphic" in2="BackgroundImageFix" result="shape"/>
<feColorMatrix in="SourceAlpha" type="matrix" values="0 0 0 0 0 0 0 0 0 0 0 0 0 0 0 0 0 0 127 0" result="hardAlpha"/>
<feOffset/>
<feGaussianBlur stdDeviation="5"/>
<feComposite in2="hardAlpha" operator="arithmetic" k2="-1" k3="1"/>
<feColorMatrix type="matrix" values="0 0 0 0 0.69579 0 0 0 0 0.262854 0 0 0 0 0.469772 0 0 0 1 0"/>
<feBlend mode="normal" in2="shape" result="effect1_innerShadow_29_6692"/>
</filter>
<filter id="filter4_i_29_6692" x="11.1167" y="55.0417" width="76.3091" height="78.9583" filterUnits="userSpaceOnUse" color-interpolation-filters="sRGB">
<feFlood flood-opacity="0" result="BackgroundImageFix"/>
<feBlend mode="normal" in="SourceGraphic" in2="BackgroundImageFix" result="shape"/>
<feColorMatrix in="SourceAlpha" type="matrix" values="0 0 0 0 0 0 0 0 0 0 0 0 0 0 0 0 0 0 127 0" result="hardAlpha"/>
<feOffset/>
<feGaussianBlur stdDeviation="5"/>
<feComposite in2="hardAlpha" operator="arithmetic" k2="-1" k3="1"/>
<feColorMatrix type="matrix" values="0 0 0 0 0.69579 0 0 0 0 0.262854 0 0 0 0 0.469772 0 0 0 1 0"/>
<feBlend mode="normal" in2="shape" result="effect1_innerShadow_29_6692"/>
</filter>
</defs>
</svg>
