<svg width="251" height="243" viewBox="0 0 251 243" fill="none" xmlns="http://www.w3.org/2000/svg">
<g filter="url(#filter0_i_28_4003)">
<path d="M82.0531 17.9481C74.6191 33.0085 111.747 113.326 111.747 113.326H137.934C137.934 113.326 172.325 33.007 167.369 17.9481C162.413 2.8891 147.846 0.37773 137.934 17.948C135.456 -7.15212 113.154 -4.64224 108.198 17.948C100.764 2.8876 89.487 2.88763 82.0531 17.9481Z" fill="#F56DAE"/>
<path d="M116.801 62.3202C116.716 61.7745 116.204 61.4013 115.659 61.4866C115.113 61.5719 114.74 62.0834 114.825 62.629L116.801 62.3202ZM114.825 62.629L122.762 113.415L124.738 113.106L116.801 62.3202L114.825 62.629Z" fill="#D35893"/>
<path d="M133.572 62.3202C133.657 61.7745 134.168 61.4013 134.714 61.4866C135.26 61.5719 135.633 62.0834 135.548 62.629L133.572 62.3202ZM135.548 62.629L127.61 113.415L125.634 113.106L133.572 62.3202L135.548 62.629Z" fill="#D35893"/>
</g>
<g filter="url(#filter1_i_28_4003)">
<path d="M16.5408 121.061C26.831 134.342 115.435 136.338 115.435 136.338L126.939 112.858C126.939 112.858 69.7516 46.7406 54.0198 44.5686C38.288 42.3966 29.6285 54.3534 41.0893 70.9589C17.4079 62.1542 9.86981 83.2524 28.0262 97.6197C11.2045 97.669 6.25058 107.78 16.5408 121.061Z" fill="#F56DAE"/>
<path d="M71.7466 109.398C71.2188 109.235 70.6582 109.531 70.4945 110.058C70.3308 110.585 70.626 111.145 71.1538 111.308L71.7466 109.398ZM71.1538 111.308L120.353 126.501L120.946 124.592L71.7466 109.398L71.1538 111.308Z" fill="#D35893"/>
<path d="M79.1122 94.3649C78.6592 94.0492 78.5486 93.4263 78.8651 92.9736C79.1816 92.5208 79.8054 92.4097 80.2584 92.7254L79.1122 94.3649ZM80.2584 92.7254L122.484 122.152L121.338 123.792L79.1122 94.3649L80.2584 92.7254Z" fill="#D35893"/>
</g>
<g filter="url(#filter2_i_28_4003)">
<path d="M213.624 52.1697C197.22 48.4524 127.573 103.154 127.573 103.154L133.657 128.575C133.657 128.575 219.922 143.298 233.446 134.988C246.97 126.679 246.033 111.955 226.607 106.415C250.493 98.1781 242.865 77.112 219.699 77.5495C232.649 66.834 230.029 55.8871 213.624 52.1697Z" fill="#F56DAE"/>
<path d="M178.454 96.2119C178.965 96.0027 179.21 95.4189 179 94.9078C178.79 94.3968 178.206 94.1522 177.695 94.3613L178.454 96.2119ZM177.695 94.3613L130.046 113.866L130.805 115.716L178.454 96.2119L177.695 94.3613Z" fill="#D35893"/>
<path d="M182.35 112.488C182.9 112.444 183.383 112.854 183.427 113.405C183.471 113.955 183.061 114.437 182.51 114.481L182.35 112.488ZM182.51 114.481L131.173 118.575L131.012 116.582L182.35 112.488L182.51 114.481Z" fill="#D35893"/>
</g>
<g filter="url(#filter3_i_28_4003)">
<path d="M220.212 176.267C217.082 159.772 139.035 117.861 139.035 117.861L118.107 133.572C118.107 133.572 139.002 218.392 152.032 227.453C165.063 236.514 178.216 229.782 175.555 209.793C192.653 228.366 208.964 212.98 199.318 191.953C214.33 199.529 223.342 192.763 220.212 176.267Z" fill="#F56DAE"/>
<path d="M165.716 161.655C166.113 162.039 166.747 162.03 167.132 161.635C167.517 161.239 167.508 160.607 167.111 160.222L165.716 161.655ZM167.111 160.222L130.179 124.399L128.784 125.831L165.716 161.655L167.111 160.222Z" fill="#D35893"/>
<path d="M152.316 171.715C152.576 172.202 152.392 172.807 151.904 173.067C151.416 173.327 150.81 173.142 150.55 172.655L152.316 171.715ZM150.55 172.655L126.304 127.308L128.07 126.368L152.316 171.715L150.55 172.655Z" fill="#D35893"/>
</g>
<g filter="url(#filter4_i_28_4003)">
<path d="M99.2151 227.215C114.269 219.723 133.457 133.368 133.457 133.368L112.617 117.541C112.617 117.541 36.5149 160.673 31.3216 175.652C26.1284 190.631 36.1965 201.433 54.7453 193.442C41.4876 214.914 60.7583 226.396 78.409 211.414C75.187 227.892 84.1612 234.707 99.2151 227.215Z" fill="#F56DAE"/>
<path d="M98.4859 170.902C98.2228 171.388 98.4037 171.994 98.8899 172.256C99.3761 172.519 99.9835 172.338 100.247 171.852L98.4859 170.902ZM100.247 171.852L124.745 126.64L122.984 125.69L98.4859 170.902L100.247 171.852Z" fill="#D35893"/>
<path d="M85.1411 160.768C84.7424 161.15 84.1088 161.138 83.7259 160.74C83.343 160.342 83.3557 159.71 83.7544 159.327L85.1411 160.768ZM83.7544 159.327L120.886 123.709L122.272 125.15L85.1411 160.768L83.7544 159.327Z" fill="#D35893"/>
</g>
<ellipse cx="125.464" cy="121.417" rx="18.9161" ry="18.8791" fill="#FFDD48"/>
<defs>
<filter id="filter0_i_28_4003" x="81.0691" y="0.0517578" width="86.7878" height="113.363" filterUnits="userSpaceOnUse" color-interpolation-filters="sRGB">
<feFlood flood-opacity="0" result="BackgroundImageFix"/>
<feBlend mode="normal" in="SourceGraphic" in2="BackgroundImageFix" result="shape"/>
<feColorMatrix in="SourceAlpha" type="matrix" values="0 0 0 0 0 0 0 0 0 0 0 0 0 0 0 0 0 0 127 0" result="hardAlpha"/>
<feOffset/>
<feGaussianBlur stdDeviation="5"/>
<feComposite in2="hardAlpha" operator="arithmetic" k2="-1" k3="1"/>
<feColorMatrix type="matrix" values="0 0 0 0 0.69579 0 0 0 0 0.262854 0 0 0 0 0.469772 0 0 0 1 0"/>
<feBlend mode="normal" in2="shape" result="effect1_innerShadow_28_4003"/>
</filter>
<filter id="filter1_i_28_4003" x="0" y="36.2688" width="140.084" height="127.574" filterUnits="userSpaceOnUse" color-interpolation-filters="sRGB">
<feFlood flood-opacity="0" result="BackgroundImageFix"/>
<feBlend mode="normal" in="SourceGraphic" in2="BackgroundImageFix" result="shape"/>
<feColorMatrix in="SourceAlpha" type="matrix" values="0 0 0 0 0 0 0 0 0 0 0 0 0 0 0 0 0 0 127 0" result="hardAlpha"/>
<feOffset/>
<feGaussianBlur stdDeviation="5"/>
<feComposite in2="hardAlpha" operator="arithmetic" k2="-1" k3="1"/>
<feColorMatrix type="matrix" values="0 0 0 0 0.69579 0 0 0 0 0.262854 0 0 0 0 0.469772 0 0 0 1 0"/>
<feBlend mode="normal" in2="shape" result="effect1_innerShadow_28_4003"/>
</filter>
<filter id="filter2_i_28_4003" x="120.446" y="47.0566" width="130.555" height="110.565" filterUnits="userSpaceOnUse" color-interpolation-filters="sRGB">
<feFlood flood-opacity="0" result="BackgroundImageFix"/>
<feBlend mode="normal" in="SourceGraphic" in2="BackgroundImageFix" result="shape"/>
<feColorMatrix in="SourceAlpha" type="matrix" values="0 0 0 0 0 0 0 0 0 0 0 0 0 0 0 0 0 0 127 0" result="hardAlpha"/>
<feOffset/>
<feGaussianBlur stdDeviation="5"/>
<feComposite in2="hardAlpha" operator="arithmetic" k2="-1" k3="1"/>
<feColorMatrix type="matrix" values="0 0 0 0 0.69579 0 0 0 0 0.262854 0 0 0 0 0.469772 0 0 0 1 0"/>
<feBlend mode="normal" in2="shape" result="effect1_innerShadow_28_4003"/>
</filter>
<filter id="filter3_i_28_4003" x="94.1946" y="99.4556" width="137.583" height="142.592" filterUnits="userSpaceOnUse" color-interpolation-filters="sRGB">
<feFlood flood-opacity="0" result="BackgroundImageFix"/>
<feBlend mode="normal" in="SourceGraphic" in2="BackgroundImageFix" result="shape"/>
<feColorMatrix in="SourceAlpha" type="matrix" values="0 0 0 0 0 0 0 0 0 0 0 0 0 0 0 0 0 0 127 0" result="hardAlpha"/>
<feOffset/>
<feGaussianBlur stdDeviation="5"/>
<feComposite in2="hardAlpha" operator="arithmetic" k2="-1" k3="1"/>
<feColorMatrix type="matrix" values="0 0 0 0 0.69579 0 0 0 0 0.262854 0 0 0 0 0.469772 0 0 0 1 0"/>
<feBlend mode="normal" in2="shape" result="effect1_innerShadow_28_4003"/>
</filter>
<filter id="filter4_i_28_4003" x="20.0742" y="99.4558" width="137.795" height="142.596" filterUnits="userSpaceOnUse" color-interpolation-filters="sRGB">
<feFlood flood-opacity="0" result="BackgroundImageFix"/>
<feBlend mode="normal" in="SourceGraphic" in2="BackgroundImageFix" result="shape"/>
<feColorMatrix in="SourceAlpha" type="matrix" values="0 0 0 0 0 0 0 0 0 0 0 0 0 0 0 0 0 0 127 0" result="hardAlpha"/>
<feOffset/>
<feGaussianBlur stdDeviation="5"/>
<feComposite in2="hardAlpha" operator="arithmetic" k2="-1" k3="1"/>
<feColorMatrix type="matrix" values="0 0 0 0 0.69579 0 0 0 0 0.262854 0 0 0 0 0.469772 0 0 0 1 0"/>
<feBlend mode="normal" in2="shape" result="effect1_innerShadow_28_4003"/>
</filter>
</defs>
</svg>
