<svg width="366" height="358" viewBox="0 0 366 358" fill="none" xmlns="http://www.w3.org/2000/svg">
<g filter="url(#filter0_i_15_150)">
<path d="M82.7246 288.746C95.7736 285.375 151.282 239.529 178.273 189.714L167.297 178.074C112.52 201.705 61.7417 248.055 56.3118 260.735C50.8819 273.415 69.6757 292.116 82.7246 288.746Z" fill="#C965ED"/>
</g>
<g filter="url(#filter1_i_15_150)">
<path d="M179.021 328.339C187.219 317.642 202.674 247.327 193.227 191.463L177.408 189.061C148.837 241.432 137.418 309.228 140.957 322.56C144.496 335.892 170.823 339.036 179.021 328.339Z" fill="#C965ED"/>
</g>
<g filter="url(#filter2_i_15_150)">
<path d="M273.18 300.582C272.592 287.118 239.268 223.301 196.143 186.556L182.477 194.877C194.222 253.366 229.02 312.661 240.296 320.605C251.572 328.549 273.768 314.047 273.18 300.582Z" fill="#C965ED"/>
</g>
<g filter="url(#filter3_i_15_150)">
<path d="M331.133 224.217C322.776 213.644 258.408 181.398 201.934 176.841L195.722 191.586C239.476 232.14 302.393 259.855 316.185 259.697C329.978 259.54 339.489 234.791 331.133 224.217Z" fill="#C965ED"/>
</g>
<g filter="url(#filter4_i_15_150)">
<path d="M329.298 126.607C316.26 123.198 245.453 136.216 197.622 166.585L201.542 182.097C260.894 188.126 327.814 172.365 338.73 163.934C349.647 155.503 342.337 130.017 329.298 126.607Z" fill="#C965ED"/>
</g>
<g filter="url(#filter5_i_15_150)">
<path d="M264.022 46.3935C251.949 52.383 207.09 108.693 190.954 163.003L204.095 172.13C252.82 137.708 292.946 81.8813 295.644 68.3543C298.342 54.8272 276.095 40.404 264.022 46.3935Z" fill="#C965ED"/>
</g>
<g filter="url(#filter6_i_15_150)">
<path d="M154.678 35.2463C149.974 47.876 155.805 119.633 181.208 170.276L197.036 167.936C209.005 109.492 200.055 41.3257 192.764 29.6165C185.474 17.9073 159.382 22.6166 154.678 35.2463Z" fill="#C965ED"/>
</g>
<g filter="url(#filter7_i_15_150)">
<path d="M31.3467 181.688C42.7467 188.877 114.178 197.853 168.948 183.349L169.896 167.378C115.138 143.703 46.5825 138.516 33.6292 143.256C20.676 147.997 19.9467 174.5 31.3467 181.688Z" fill="#C965ED"/>
</g>
<g filter="url(#filter8_i_15_150)">
<path d="M62.2578 95.8177C67.5999 108.191 121.457 155.966 174.837 174.954L184.646 162.314C152.851 111.836 99.2265 68.8117 85.8612 65.4018C72.4959 61.9918 56.9156 83.4445 62.2578 95.8177Z" fill="#C965ED"/>
</g>
<circle cx="188.5" cy="175.5" r="24.5" fill="#FFAD29"/>
<defs>
<filter id="filter0_i_15_150" x="45" y="156" width="144.437" height="151.665" filterUnits="userSpaceOnUse" color-interpolation-filters="sRGB">
<feFlood flood-opacity="0" result="BackgroundImageFix"/>
<feBlend mode="normal" in="SourceGraphic" in2="BackgroundImageFix" result="shape"/>
<feColorMatrix in="SourceAlpha" type="matrix" values="0 0 0 0 0 0 0 0 0 0 0 0 0 0 0 0 0 0 127 0" result="hardAlpha"/>
<feOffset/>
<feGaussianBlur stdDeviation="5"/>
<feComposite in2="hardAlpha" operator="arithmetic" k2="-1" k3="1"/>
<feColorMatrix type="matrix" values="0 0 0 0 0.65704 0 0 0 0 0.325634 0 0 0 0 0.776345 0 0 0 1 0"/>
<feBlend mode="normal" in2="shape" result="effect1_innerShadow_15_150"/>
</filter>
<filter id="filter1_i_15_150" x="77" y="167" width="188.212" height="190.521" filterUnits="userSpaceOnUse" color-interpolation-filters="sRGB">
<feFlood flood-opacity="0" result="BackgroundImageFix"/>
<feBlend mode="normal" in="SourceGraphic" in2="BackgroundImageFix" result="shape"/>
<feColorMatrix in="SourceAlpha" type="matrix" values="0 0 0 0 0 0 0 0 0 0 0 0 0 0 0 0 0 0 127 0" result="hardAlpha"/>
<feOffset/>
<feGaussianBlur stdDeviation="5"/>
<feComposite in2="hardAlpha" operator="arithmetic" k2="-1" k3="1"/>
<feColorMatrix type="matrix" values="0 0 0 0 0.65704 0 0 0 0 0.325634 0 0 0 0 0.776345 0 0 0 1 0"/>
<feBlend mode="normal" in2="shape" result="effect1_innerShadow_15_150"/>
</filter>
<filter id="filter2_i_15_150" x="138" y="171" width="173.335" height="168.048" filterUnits="userSpaceOnUse" color-interpolation-filters="sRGB">
<feFlood flood-opacity="0" result="BackgroundImageFix"/>
<feBlend mode="normal" in="SourceGraphic" in2="BackgroundImageFix" result="shape"/>
<feColorMatrix in="SourceAlpha" type="matrix" values="0 0 0 0 0 0 0 0 0 0 0 0 0 0 0 0 0 0 127 0" result="hardAlpha"/>
<feOffset/>
<feGaussianBlur stdDeviation="5"/>
<feComposite in2="hardAlpha" operator="arithmetic" k2="-1" k3="1"/>
<feColorMatrix type="matrix" values="0 0 0 0 0.65704 0 0 0 0 0.325634 0 0 0 0 0.776345 0 0 0 1 0"/>
<feBlend mode="normal" in2="shape" result="effect1_innerShadow_15_150"/>
</filter>
<filter id="filter3_i_15_150" x="177" y="130" width="176.267" height="171.333" filterUnits="userSpaceOnUse" color-interpolation-filters="sRGB">
<feFlood flood-opacity="0" result="BackgroundImageFix"/>
<feBlend mode="normal" in="SourceGraphic" in2="BackgroundImageFix" result="shape"/>
<feColorMatrix in="SourceAlpha" type="matrix" values="0 0 0 0 0 0 0 0 0 0 0 0 0 0 0 0 0 0 127 0" result="hardAlpha"/>
<feOffset/>
<feGaussianBlur stdDeviation="5"/>
<feComposite in2="hardAlpha" operator="arithmetic" k2="-1" k3="1"/>
<feColorMatrix type="matrix" values="0 0 0 0 0.65704 0 0 0 0 0.325634 0 0 0 0 0.776345 0 0 0 1 0"/>
<feBlend mode="normal" in2="shape" result="effect1_innerShadow_15_150"/>
</filter>
<filter id="filter4_i_15_150" x="177" y="64.0002" width="188.916" height="191.047" filterUnits="userSpaceOnUse" color-interpolation-filters="sRGB">
<feFlood flood-opacity="0" result="BackgroundImageFix"/>
<feBlend mode="normal" in="SourceGraphic" in2="BackgroundImageFix" result="shape"/>
<feColorMatrix in="SourceAlpha" type="matrix" values="0 0 0 0 0 0 0 0 0 0 0 0 0 0 0 0 0 0 127 0" result="hardAlpha"/>
<feOffset/>
<feGaussianBlur stdDeviation="5"/>
<feComposite in2="hardAlpha" operator="arithmetic" k2="-1" k3="1"/>
<feColorMatrix type="matrix" values="0 0 0 0 0.65704 0 0 0 0 0.325634 0 0 0 0 0.776345 0 0 0 1 0"/>
<feBlend mode="normal" in2="shape" result="effect1_innerShadow_15_150"/>
</filter>
<filter id="filter5_i_15_150" x="167.51" y="31.2434" width="148.997" height="155.91" filterUnits="userSpaceOnUse" color-interpolation-filters="sRGB">
<feFlood flood-opacity="0" result="BackgroundImageFix"/>
<feBlend mode="normal" in="SourceGraphic" in2="BackgroundImageFix" result="shape"/>
<feColorMatrix in="SourceAlpha" type="matrix" values="0 0 0 0 0 0 0 0 0 0 0 0 0 0 0 0 0 0 127 0" result="hardAlpha"/>
<feOffset/>
<feGaussianBlur stdDeviation="5"/>
<feComposite in2="hardAlpha" operator="arithmetic" k2="-1" k3="1"/>
<feColorMatrix type="matrix" values="0 0 0 0 0.65704 0 0 0 0 0.325634 0 0 0 0 0.776345 0 0 0 1 0"/>
<feBlend mode="normal" in2="shape" result="effect1_innerShadow_15_150"/>
</filter>
<filter id="filter6_i_15_150" x="85" y="0" width="193.22" height="192.208" filterUnits="userSpaceOnUse" color-interpolation-filters="sRGB">
<feFlood flood-opacity="0" result="BackgroundImageFix"/>
<feBlend mode="normal" in="SourceGraphic" in2="BackgroundImageFix" result="shape"/>
<feColorMatrix in="SourceAlpha" type="matrix" values="0 0 0 0 0 0 0 0 0 0 0 0 0 0 0 0 0 0 127 0" result="hardAlpha"/>
<feOffset/>
<feGaussianBlur stdDeviation="5"/>
<feComposite in2="hardAlpha" operator="arithmetic" k2="-1" k3="1"/>
<feColorMatrix type="matrix" values="0 0 0 0 0.65704 0 0 0 0 0.325634 0 0 0 0 0.776345 0 0 0 1 0"/>
<feBlend mode="normal" in2="shape" result="effect1_innerShadow_15_150"/>
</filter>
<filter id="filter7_i_15_150" x="0" y="72" width="192.855" height="191.559" filterUnits="userSpaceOnUse" color-interpolation-filters="sRGB">
<feFlood flood-opacity="0" result="BackgroundImageFix"/>
<feBlend mode="normal" in="SourceGraphic" in2="BackgroundImageFix" result="shape"/>
<feColorMatrix in="SourceAlpha" type="matrix" values="0 0 0 0 0 0 0 0 0 0 0 0 0 0 0 0 0 0 127 0" result="hardAlpha"/>
<feOffset/>
<feGaussianBlur stdDeviation="5"/>
<feComposite in2="hardAlpha" operator="arithmetic" k2="-1" k3="1"/>
<feColorMatrix type="matrix" values="0 0 0 0 0.65704 0 0 0 0 0.325634 0 0 0 0 0.776345 0 0 0 1 0"/>
<feBlend mode="normal" in2="shape" result="effect1_innerShadow_15_150"/>
</filter>
<filter id="filter8_i_15_150" x="49" y="50" width="149.619" height="142.248" filterUnits="userSpaceOnUse" color-interpolation-filters="sRGB">
<feFlood flood-opacity="0" result="BackgroundImageFix"/>
<feBlend mode="normal" in="SourceGraphic" in2="BackgroundImageFix" result="shape"/>
<feColorMatrix in="SourceAlpha" type="matrix" values="0 0 0 0 0 0 0 0 0 0 0 0 0 0 0 0 0 0 127 0" result="hardAlpha"/>
<feOffset/>
<feGaussianBlur stdDeviation="5"/>
<feComposite in2="hardAlpha" operator="arithmetic" k2="-1" k3="1"/>
<feColorMatrix type="matrix" values="0 0 0 0 0.65704 0 0 0 0 0.325634 0 0 0 0 0.776345 0 0 0 1 0"/>
<feBlend mode="normal" in2="shape" result="effect1_innerShadow_15_150"/>
</filter>
</defs>
</svg>
