<svg width="351" height="329" viewBox="0 0 351 329" fill="none" xmlns="http://www.w3.org/2000/svg">
<g filter="url(#filter0_i_16_359)">
<path d="M187.637 112.291L144.768 118.735C94.7406 84.6684 97.531 53.2219 129.88 46.6067C135.697 34.408 164.362 27.9858 176.707 39.5685C211.666 37.5145 221.983 68.0871 187.637 112.291Z" fill="#F00049"/>
</g>
<g filter="url(#filter1_i_16_359)">
<path d="M232.499 142.239L199.037 114.68C190.901 54.7042 216.144 35.7457 242.698 55.3692C255.658 51.5351 279.605 68.5487 279.251 85.473C304.16 110.088 288.333 138.206 232.499 142.239Z" fill="#F00049"/>
</g>
<g filter="url(#filter2_i_16_359)">
<path d="M239.725 199.171L235.298 156.047C271.672 107.672 302.953 111.933 308.045 144.556C319.958 150.939 325.029 179.873 312.881 191.661C313.294 226.678 282.271 235.551 239.725 199.171Z" fill="#F00049"/>
</g>
<g filter="url(#filter3_i_16_359)">
<path d="M197.332 214.022L234.354 191.47C293.674 203.488 303.288 233.559 276.03 252.193C275.394 265.693 251.458 282.721 235.589 276.827C204.158 292.268 182.799 268.082 197.332 214.022Z" fill="#F00049"/>
</g>
<g filter="url(#filter4_i_16_359)">
<path d="M142.097 204.606L184.136 215.189C217.162 265.909 202.463 293.849 170.065 287.481C159.994 296.493 131.07 291.367 124.145 275.921C91.0966 264.338 93.3642 232.151 142.097 204.606Z" fill="#F00049"/>
</g>
<g filter="url(#filter5_i_16_359)">
<path d="M115.491 161.507L136.083 199.654C120.99 258.267 90.4594 266.301 73.2712 238.109C59.8227 236.771 44.0648 211.98 50.7776 196.44C36.9957 164.247 62.2615 144.177 115.491 161.507Z" fill="#F00049"/>
</g>
<g filter="url(#filter6_i_16_359)">
<path d="M134.369 124.316L113.431 162.275C55.9731 181.298 32.6969 159.97 47.1043 130.261C40.953 118.227 53.2744 91.5609 69.9752 88.7973C89.5911 59.7874 120.14 70.1755 134.369 124.316Z" fill="#F00049"/>
</g>
<g filter="url(#filter7_i_16_359)">
<path d="M179.221 135.396L152.28 161.208C100.186 162.083 86.5287 138.581 105.987 117.87C104.019 106.403 120.983 87.657 135.415 89.6753C158.974 70.877 181.413 87.2577 179.221 135.396Z" fill="#F00049"/>
</g>
<g filter="url(#filter8_i_16_359)">
<path d="M197.243 155.386L165.347 136.029C151.044 85.9292 170.219 66.6638 195.254 80.111C205.823 75.2466 228.315 86.7915 230.094 101.256C254.341 119.158 244.314 145.067 197.243 155.386Z" fill="#F00049"/>
</g>
<g filter="url(#filter9_i_16_359)">
<path d="M204.457 186.869L197.451 150.223C225.053 106.033 252.203 107.356 258.998 134.95C269.691 139.535 276.194 163.967 266.65 174.98C269.61 204.974 243.659 214.893 204.457 186.869Z" fill="#F00049"/>
</g>
<g filter="url(#filter10_i_16_359)">
<path d="M170.477 190.982L204.595 175.881C253.876 192.789 258.719 219.536 233.373 232.387C231.321 243.84 208.99 255.693 196.106 248.883C167.555 258.54 152.031 235.5 170.477 190.982Z" fill="#F00049"/>
</g>
<g filter="url(#filter11_i_16_359)">
<path d="M150.505 166.954L178.821 191.25C184.77 243.011 162.711 258.894 140.202 241.548C128.981 244.625 108.671 229.569 109.273 215.009C88.2671 193.394 102.382 169.465 150.505 166.954Z" fill="#F00049"/>
</g>
<g filter="url(#filter12_i_16_359)">
<path d="M149.654 139.569L158.758 175.752C133.745 221.457 106.564 221.698 98.1924 194.542C87.2528 190.58 79.3542 166.563 88.2484 155.019C83.5671 125.245 108.904 113.848 149.654 139.569Z" fill="#F00049"/>
</g>
<g filter="url(#filter13_i_16_359)">
<path d="M194.755 157.103L168.782 157.103C142.176 132.403 146.63 113.974 166.384 112.933C170.918 106.207 188.472 104.951 194.755 112.933C215.65 114.834 219.04 133.914 194.755 157.103Z" fill="#F00049"/>
</g>
<g filter="url(#filter14_i_16_359)">
<path d="M189.534 179.017L183.62 153.727C201.614 122.196 220.573 122.336 226.085 141.335C233.666 144.218 238.886 161.025 232.544 168.96C235.45 189.739 217.643 197.384 189.534 179.017Z" fill="#F00049"/>
</g>
<g filter="url(#filter15_i_16_359)">
<path d="M169.024 165.45L194.647 161.202C224.935 181.217 223.556 200.126 204.237 204.385C200.866 211.762 183.753 215.872 176.249 209.026C155.325 210.568 148.859 192.3 169.024 165.45Z" fill="#F00049"/>
</g>
<g filter="url(#filter16_i_16_359)">
<path d="M178.996 148.64L178.003 174.594C152.304 200.236 134.059 195.082 133.774 175.302C127.226 170.515 126.642 152.925 134.858 146.952C137.556 126.145 156.751 123.487 178.996 148.64Z" fill="#F00049"/>
</g>
<g filter="url(#filter17_i_16_359)">
<circle cx="183.5" cy="161.5" r="17.5" fill="#F00049"/>
</g>
<defs>
<filter id="filter0_i_16_359" x="106.265" y="33.4866" width="102.498" height="85.2483" filterUnits="userSpaceOnUse" color-interpolation-filters="sRGB">
<feFlood flood-opacity="0" result="BackgroundImageFix"/>
<feBlend mode="normal" in="SourceGraphic" in2="BackgroundImageFix" result="shape"/>
<feColorMatrix in="SourceAlpha" type="matrix" values="0 0 0 0 0 0 0 0 0 0 0 0 0 0 0 0 0 0 127 0" result="hardAlpha"/>
<feOffset/>
<feGaussianBlur stdDeviation="5"/>
<feComposite in2="hardAlpha" operator="arithmetic" k2="-1" k3="1"/>
<feColorMatrix type="matrix" values="0 0 0 0 0.69579 0 0 0 0 0.0328567 0 0 0 0 0.234499 0 0 0 1 0"/>
<feBlend mode="normal" in2="shape" result="effect1_innerShadow_16_359"/>
</filter>
<filter id="filter1_i_16_359" x="197.485" y="47.9231" width="93.2097" height="94.3162" filterUnits="userSpaceOnUse" color-interpolation-filters="sRGB">
<feFlood flood-opacity="0" result="BackgroundImageFix"/>
<feBlend mode="normal" in="SourceGraphic" in2="BackgroundImageFix" result="shape"/>
<feColorMatrix in="SourceAlpha" type="matrix" values="0 0 0 0 0 0 0 0 0 0 0 0 0 0 0 0 0 0 127 0" result="hardAlpha"/>
<feOffset/>
<feGaussianBlur stdDeviation="5"/>
<feComposite in2="hardAlpha" operator="arithmetic" k2="-1" k3="1"/>
<feColorMatrix type="matrix" values="0 0 0 0 0.69579 0 0 0 0 0.0328567 0 0 0 0 0.234499 0 0 0 1 0"/>
<feBlend mode="normal" in2="shape" result="effect1_innerShadow_16_359"/>
</filter>
<filter id="filter2_i_16_359" x="235.298" y="119.866" width="84.5593" height="102.673" filterUnits="userSpaceOnUse" color-interpolation-filters="sRGB">
<feFlood flood-opacity="0" result="BackgroundImageFix"/>
<feBlend mode="normal" in="SourceGraphic" in2="BackgroundImageFix" result="shape"/>
<feColorMatrix in="SourceAlpha" type="matrix" values="0 0 0 0 0 0 0 0 0 0 0 0 0 0 0 0 0 0 127 0" result="hardAlpha"/>
<feOffset/>
<feGaussianBlur stdDeviation="5"/>
<feComposite in2="hardAlpha" operator="arithmetic" k2="-1" k3="1"/>
<feColorMatrix type="matrix" values="0 0 0 0 0.69579 0 0 0 0 0.0328567 0 0 0 0 0.234499 0 0 0 1 0"/>
<feBlend mode="normal" in2="shape" result="effect1_innerShadow_16_359"/>
</filter>
<filter id="filter3_i_16_359" x="192.677" y="191.47" width="97.8735" height="89.9443" filterUnits="userSpaceOnUse" color-interpolation-filters="sRGB">
<feFlood flood-opacity="0" result="BackgroundImageFix"/>
<feBlend mode="normal" in="SourceGraphic" in2="BackgroundImageFix" result="shape"/>
<feColorMatrix in="SourceAlpha" type="matrix" values="0 0 0 0 0 0 0 0 0 0 0 0 0 0 0 0 0 0 127 0" result="hardAlpha"/>
<feOffset/>
<feGaussianBlur stdDeviation="5"/>
<feComposite in2="hardAlpha" operator="arithmetic" k2="-1" k3="1"/>
<feColorMatrix type="matrix" values="0 0 0 0 0.69579 0 0 0 0 0.0328567 0 0 0 0 0.234499 0 0 0 1 0"/>
<feBlend mode="normal" in2="shape" result="effect1_innerShadow_16_359"/>
</filter>
<filter id="filter4_i_16_359" x="101.982" y="204.606" width="100.802" height="87.3159" filterUnits="userSpaceOnUse" color-interpolation-filters="sRGB">
<feFlood flood-opacity="0" result="BackgroundImageFix"/>
<feBlend mode="normal" in="SourceGraphic" in2="BackgroundImageFix" result="shape"/>
<feColorMatrix in="SourceAlpha" type="matrix" values="0 0 0 0 0 0 0 0 0 0 0 0 0 0 0 0 0 0 127 0" result="hardAlpha"/>
<feOffset/>
<feGaussianBlur stdDeviation="5"/>
<feComposite in2="hardAlpha" operator="arithmetic" k2="-1" k3="1"/>
<feColorMatrix type="matrix" values="0 0 0 0 0.69579 0 0 0 0 0.0328567 0 0 0 0 0.234499 0 0 0 1 0"/>
<feBlend mode="normal" in2="shape" result="effect1_innerShadow_16_359"/>
</filter>
<filter id="filter5_i_16_359" x="47.066" y="155.126" width="89.0171" height="98.677" filterUnits="userSpaceOnUse" color-interpolation-filters="sRGB">
<feFlood flood-opacity="0" result="BackgroundImageFix"/>
<feBlend mode="normal" in="SourceGraphic" in2="BackgroundImageFix" result="shape"/>
<feColorMatrix in="SourceAlpha" type="matrix" values="0 0 0 0 0 0 0 0 0 0 0 0 0 0 0 0 0 0 127 0" result="hardAlpha"/>
<feOffset/>
<feGaussianBlur stdDeviation="5"/>
<feComposite in2="hardAlpha" operator="arithmetic" k2="-1" k3="1"/>
<feColorMatrix type="matrix" values="0 0 0 0 0.69579 0 0 0 0 0.0328567 0 0 0 0 0.234499 0 0 0 1 0"/>
<feBlend mode="normal" in2="shape" result="effect1_innerShadow_16_359"/>
</filter>
<filter id="filter6_i_16_359" x="42.9482" y="72.9875" width="91.4204" height="96.5049" filterUnits="userSpaceOnUse" color-interpolation-filters="sRGB">
<feFlood flood-opacity="0" result="BackgroundImageFix"/>
<feBlend mode="normal" in="SourceGraphic" in2="BackgroundImageFix" result="shape"/>
<feColorMatrix in="SourceAlpha" type="matrix" values="0 0 0 0 0 0 0 0 0 0 0 0 0 0 0 0 0 0 127 0" result="hardAlpha"/>
<feOffset/>
<feGaussianBlur stdDeviation="5"/>
<feComposite in2="hardAlpha" operator="arithmetic" k2="-1" k3="1"/>
<feColorMatrix type="matrix" values="0 0 0 0 0.69579 0 0 0 0 0.0328567 0 0 0 0 0.234499 0 0 0 1 0"/>
<feBlend mode="normal" in2="shape" result="effect1_innerShadow_16_359"/>
</filter>
<filter id="filter7_i_16_359" x="97.5424" y="82.075" width="81.827" height="79.157" filterUnits="userSpaceOnUse" color-interpolation-filters="sRGB">
<feFlood flood-opacity="0" result="BackgroundImageFix"/>
<feBlend mode="normal" in="SourceGraphic" in2="BackgroundImageFix" result="shape"/>
<feColorMatrix in="SourceAlpha" type="matrix" values="0 0 0 0 0 0 0 0 0 0 0 0 0 0 0 0 0 0 127 0" result="hardAlpha"/>
<feOffset/>
<feGaussianBlur stdDeviation="5"/>
<feComposite in2="hardAlpha" operator="arithmetic" k2="-1" k3="1"/>
<feColorMatrix type="matrix" values="0 0 0 0 0.69579 0 0 0 0 0.0328567 0 0 0 0 0.234499 0 0 0 1 0"/>
<feBlend mode="normal" in2="shape" result="effect1_innerShadow_16_359"/>
</filter>
<filter id="filter8_i_16_359" x="160.451" y="75.9487" width="82.3881" height="79.4375" filterUnits="userSpaceOnUse" color-interpolation-filters="sRGB">
<feFlood flood-opacity="0" result="BackgroundImageFix"/>
<feBlend mode="normal" in="SourceGraphic" in2="BackgroundImageFix" result="shape"/>
<feColorMatrix in="SourceAlpha" type="matrix" values="0 0 0 0 0 0 0 0 0 0 0 0 0 0 0 0 0 0 127 0" result="hardAlpha"/>
<feOffset/>
<feGaussianBlur stdDeviation="5"/>
<feComposite in2="hardAlpha" operator="arithmetic" k2="-1" k3="1"/>
<feColorMatrix type="matrix" values="0 0 0 0 0.69579 0 0 0 0 0.0328567 0 0 0 0 0.234499 0 0 0 1 0"/>
<feBlend mode="normal" in2="shape" result="effect1_innerShadow_16_359"/>
</filter>
<filter id="filter9_i_16_359" x="197.451" y="115.411" width="73.8347" height="88.0244" filterUnits="userSpaceOnUse" color-interpolation-filters="sRGB">
<feFlood flood-opacity="0" result="BackgroundImageFix"/>
<feBlend mode="normal" in="SourceGraphic" in2="BackgroundImageFix" result="shape"/>
<feColorMatrix in="SourceAlpha" type="matrix" values="0 0 0 0 0 0 0 0 0 0 0 0 0 0 0 0 0 0 127 0" result="hardAlpha"/>
<feOffset/>
<feGaussianBlur stdDeviation="5"/>
<feComposite in2="hardAlpha" operator="arithmetic" k2="-1" k3="1"/>
<feColorMatrix type="matrix" values="0 0 0 0 0.69579 0 0 0 0 0.0328567 0 0 0 0 0.234499 0 0 0 1 0"/>
<feBlend mode="normal" in2="shape" result="effect1_innerShadow_16_359"/>
</filter>
<filter id="filter10_i_16_359" x="162.482" y="175.881" width="85.9283" height="75.1792" filterUnits="userSpaceOnUse" color-interpolation-filters="sRGB">
<feFlood flood-opacity="0" result="BackgroundImageFix"/>
<feBlend mode="normal" in="SourceGraphic" in2="BackgroundImageFix" result="shape"/>
<feColorMatrix in="SourceAlpha" type="matrix" values="0 0 0 0 0 0 0 0 0 0 0 0 0 0 0 0 0 0 127 0" result="hardAlpha"/>
<feOffset/>
<feGaussianBlur stdDeviation="5"/>
<feComposite in2="hardAlpha" operator="arithmetic" k2="-1" k3="1"/>
<feColorMatrix type="matrix" values="0 0 0 0 0.69579 0 0 0 0 0.0328567 0 0 0 0 0.234499 0 0 0 1 0"/>
<feBlend mode="normal" in2="shape" result="effect1_innerShadow_16_359"/>
</filter>
<filter id="filter11_i_16_359" x="99.8201" y="166.954" width="79.9841" height="81.3386" filterUnits="userSpaceOnUse" color-interpolation-filters="sRGB">
<feFlood flood-opacity="0" result="BackgroundImageFix"/>
<feBlend mode="normal" in="SourceGraphic" in2="BackgroundImageFix" result="shape"/>
<feColorMatrix in="SourceAlpha" type="matrix" values="0 0 0 0 0 0 0 0 0 0 0 0 0 0 0 0 0 0 127 0" result="hardAlpha"/>
<feOffset/>
<feGaussianBlur stdDeviation="5"/>
<feComposite in2="hardAlpha" operator="arithmetic" k2="-1" k3="1"/>
<feColorMatrix type="matrix" values="0 0 0 0 0.69579 0 0 0 0 0.0328567 0 0 0 0 0.234499 0 0 0 1 0"/>
<feBlend mode="normal" in2="shape" result="effect1_innerShadow_16_359"/>
</filter>
<filter id="filter12_i_16_359" x="84.4062" y="125.297" width="74.3516" height="87.644" filterUnits="userSpaceOnUse" color-interpolation-filters="sRGB">
<feFlood flood-opacity="0" result="BackgroundImageFix"/>
<feBlend mode="normal" in="SourceGraphic" in2="BackgroundImageFix" result="shape"/>
<feColorMatrix in="SourceAlpha" type="matrix" values="0 0 0 0 0 0 0 0 0 0 0 0 0 0 0 0 0 0 127 0" result="hardAlpha"/>
<feOffset/>
<feGaussianBlur stdDeviation="5"/>
<feComposite in2="hardAlpha" operator="arithmetic" k2="-1" k3="1"/>
<feColorMatrix type="matrix" values="0 0 0 0 0.69579 0 0 0 0 0.0328567 0 0 0 0 0.234499 0 0 0 1 0"/>
<feBlend mode="normal" in2="shape" result="effect1_innerShadow_16_359"/>
</filter>
<filter id="filter13_i_16_359" x="150.19" y="107.407" width="61.5314" height="49.6958" filterUnits="userSpaceOnUse" color-interpolation-filters="sRGB">
<feFlood flood-opacity="0" result="BackgroundImageFix"/>
<feBlend mode="normal" in="SourceGraphic" in2="BackgroundImageFix" result="shape"/>
<feColorMatrix in="SourceAlpha" type="matrix" values="0 0 0 0 0 0 0 0 0 0 0 0 0 0 0 0 0 0 127 0" result="hardAlpha"/>
<feOffset/>
<feGaussianBlur stdDeviation="5"/>
<feComposite in2="hardAlpha" operator="arithmetic" k2="-1" k3="1"/>
<feColorMatrix type="matrix" values="0 0 0 0 0.69579 0 0 0 0 0.0328567 0 0 0 0 0.234499 0 0 0 1 0"/>
<feBlend mode="normal" in2="shape" result="effect1_innerShadow_16_359"/>
</filter>
<filter id="filter14_i_16_359" x="183.62" y="128.301" width="51.7626" height="61.1006" filterUnits="userSpaceOnUse" color-interpolation-filters="sRGB">
<feFlood flood-opacity="0" result="BackgroundImageFix"/>
<feBlend mode="normal" in="SourceGraphic" in2="BackgroundImageFix" result="shape"/>
<feColorMatrix in="SourceAlpha" type="matrix" values="0 0 0 0 0 0 0 0 0 0 0 0 0 0 0 0 0 0 127 0" result="hardAlpha"/>
<feOffset/>
<feGaussianBlur stdDeviation="5"/>
<feComposite in2="hardAlpha" operator="arithmetic" k2="-1" k3="1"/>
<feColorMatrix type="matrix" values="0 0 0 0 0.69579 0 0 0 0 0.0328567 0 0 0 0 0.234499 0 0 0 1 0"/>
<feBlend mode="normal" in2="shape" result="effect1_innerShadow_16_359"/>
</filter>
<filter id="filter15_i_16_359" x="156.807" y="161.202" width="61.3655" height="51.3169" filterUnits="userSpaceOnUse" color-interpolation-filters="sRGB">
<feFlood flood-opacity="0" result="BackgroundImageFix"/>
<feBlend mode="normal" in="SourceGraphic" in2="BackgroundImageFix" result="shape"/>
<feColorMatrix in="SourceAlpha" type="matrix" values="0 0 0 0 0 0 0 0 0 0 0 0 0 0 0 0 0 0 127 0" result="hardAlpha"/>
<feOffset/>
<feGaussianBlur stdDeviation="5"/>
<feComposite in2="hardAlpha" operator="arithmetic" k2="-1" k3="1"/>
<feColorMatrix type="matrix" values="0 0 0 0 0.69579 0 0 0 0 0.0328567 0 0 0 0 0.234499 0 0 0 1 0"/>
<feBlend mode="normal" in2="shape" result="effect1_innerShadow_16_359"/>
</filter>
<filter id="filter16_i_16_359" x="128.778" y="130.559" width="50.218" height="61.4629" filterUnits="userSpaceOnUse" color-interpolation-filters="sRGB">
<feFlood flood-opacity="0" result="BackgroundImageFix"/>
<feBlend mode="normal" in="SourceGraphic" in2="BackgroundImageFix" result="shape"/>
<feColorMatrix in="SourceAlpha" type="matrix" values="0 0 0 0 0 0 0 0 0 0 0 0 0 0 0 0 0 0 127 0" result="hardAlpha"/>
<feOffset/>
<feGaussianBlur stdDeviation="5"/>
<feComposite in2="hardAlpha" operator="arithmetic" k2="-1" k3="1"/>
<feColorMatrix type="matrix" values="0 0 0 0 0.69579 0 0 0 0 0.0328567 0 0 0 0 0.234499 0 0 0 1 0"/>
<feBlend mode="normal" in2="shape" result="effect1_innerShadow_16_359"/>
</filter>
<filter id="filter17_i_16_359" x="166" y="144" width="35" height="35" filterUnits="userSpaceOnUse" color-interpolation-filters="sRGB">
<feFlood flood-opacity="0" result="BackgroundImageFix"/>
<feBlend mode="normal" in="SourceGraphic" in2="BackgroundImageFix" result="shape"/>
<feColorMatrix in="SourceAlpha" type="matrix" values="0 0 0 0 0 0 0 0 0 0 0 0 0 0 0 0 0 0 127 0" result="hardAlpha"/>
<feOffset/>
<feGaussianBlur stdDeviation="5"/>
<feComposite in2="hardAlpha" operator="arithmetic" k2="-1" k3="1"/>
<feColorMatrix type="matrix" values="0 0 0 0 0.694118 0 0 0 0 0.0313726 0 0 0 0 0.235294 0 0 0 1 0"/>
<feBlend mode="normal" in2="shape" result="effect1_innerShadow_16_359"/>
</filter>
</defs>
</svg>
